<?xml version="1.0" encoding="utf-8"?>
<!-- Generator: Adobe Illustrator 23.0.0, SVG Export Plug-In . SVG Version: 6.00 Build 0)  -->
<svg version="1.1" xmlns="http://www.w3.org/2000/svg" xmlns:xlink="http://www.w3.org/1999/xlink" x="0px" y="0px"
	 viewBox="0 0 595.3 841.9" style="enable-background:new 0 0 595.3 841.9;" xml:space="preserve">
<style type="text/css">
	.st0{fill:#FFFFFF;stroke:#FFFFFF;stroke-miterlimit:10;}
</style>
<g id="Layer_3">
</g>
<g id="Layer_4">
</g>
<g id="Layer_5">
	<path class="st0" d="M382.1,363.1c1.2-9-1-17.2-5.4-23.7l-18.3-47.4c-2.4-14.4-16.6-24.3-31.4-20.2c-9.9,2.7-17,11.5-18.1,21.6
		c-0.6,5.6,0.6,10.7,2.9,15.1h-13c3-4.8,4.5-10.7,3.8-17.1c-1.2-10-8.3-18.5-18-21.2c-14.8-4.1-28.9,5.8-31.4,20.2l-18.3,47.4
		c-4.4,6.5-6.6,14.8-5.4,23.7c1.7,12.8,10.7,23.6,23.1,27.3c20.6,6.1,40.3-8.5,42.1-29.1c0.2-2.1,0.2-4.2,0-6.2l2-23h18.2l2.2,24.6
		c-0.2,2-0.2,4.1,0,6.2c1.8,20.6,21.5,35.1,42.1,29.1C371.4,386.7,380.4,375.9,382.1,363.1z M288.8,359.4c-0.1,1-0.2,2-0.4,3l0.1,0
		c-2.7,13.4-15.1,22.9-29.1,21.7c0,0,0,0,0,0c0,0,0,0,0,0c-15-1.3-26-14.5-24.6-29.5c1.3-15,14.5-26,29.5-24.6
		C279.1,331.3,290.1,344.5,288.8,359.4z M352.2,385.6C352.2,385.6,352.2,385.6,352.2,385.6C352.1,385.6,352.1,385.6,352.2,385.6
		c-14,1.3-26.4-8.2-29.1-21.6l0.1,0c-0.2-1-0.3-2-0.4-3c-1.3-15,9.7-28.2,24.6-29.5c15-1.3,28.2,9.7,29.5,24.6
		C378.2,371,367.1,384.2,352.2,385.6z"/>
</g>
</svg>
