<?xml version="1.0" encoding="utf-8"?>
<!-- Generator: Adobe Illustrator 23.0.0, SVG Export Plug-In . SVG Version: 6.00 Build 0)  -->
<svg version="1.1" id="Layer_1" xmlns="http://www.w3.org/2000/svg" xmlns:xlink="http://www.w3.org/1999/xlink" x="0px" y="0px"
	 viewBox="0 0 595.3 389.9" style="enable-background:new 0 0 595.3 389.9;" xml:space="preserve">
<style type="text/css">
	.st0{fill:none;stroke:#FFFFFF;stroke-width:20;stroke-miterlimit:10;}
	.st1{fill:#FFFFFF;}
</style>
<circle class="st0" cx="306.4" cy="194.9" r="165.6"/>
<g>
	<path class="st1" d="M290.2,209.4l-4.7-70.2c-0.9-13.7-1.3-23.5-1.3-29.4c0-8.1,2.1-14.4,6.4-19s9.8-6.8,16.8-6.8
		c8.4,0,14,2.9,16.8,8.7c2.8,5.8,4.2,14.2,4.2,25.1c0,6.4-0.3,13-1,19.6l-6.3,72.2c-0.7,8.6-2.1,15.2-4.4,19.8
		c-2.2,4.6-6,6.9-11.1,6.9c-5.3,0-8.9-2.2-11-6.7C292.6,225.3,291.1,218.5,290.2,209.4z M306.5,305.8c-6,0-11.2-1.9-15.6-5.8
		c-4.4-3.9-6.7-9.3-6.7-16.2c0-6.1,2.1-11.2,6.4-15.5s9.4-6.4,15.6-6.4s11.4,2.1,15.7,6.4c4.3,4.2,6.5,9.4,6.5,15.5
		c0,6.8-2.2,12.2-6.6,16.1S312.4,305.8,306.5,305.8z"/>
</g>
</svg>
