<?xml version="1.0" encoding="utf-8"?>
<!-- Generator: Adobe Illustrator 23.0.0, SVG Export Plug-In . SVG Version: 6.00 Build 0)  -->
<svg version="1.1" id="Layer_1" xmlns="http://www.w3.org/2000/svg" xmlns:xlink="http://www.w3.org/1999/xlink" x="0px" y="0px"
	 viewBox="0 0 597 434" style="enable-background:new 0 0 597 434;" xml:space="preserve">
<style type="text/css">
	.st0{fill:#FFFFFF;stroke:#FFFFFF;stroke-miterlimit:10;}
</style>
<path class="st0" d="M437.8,204.3c1.3-6.6,2-13.3,2-20.3c0-55.9-45.3-101.2-101.2-101.2c-32,0-60.5,14.8-79,38
	c-9.8-4.4-20.6-6.9-32-6.9c-42.7,0-77.3,34.6-77.3,77.3c0,3.3,0.2,6.5,0.6,9.6c-34,6.5-59.7,36.3-59.7,72.2v0
	c0,40.6,32.9,73.5,73.5,73.5h88.7V285h-49.2c-5,0-7.7-5.8-4.5-9.6l84.1-100.6c2.3-2.8,6.6-2.8,9,0l84.1,100.6
	c3.2,3.8,0.5,9.6-4.5,9.6h-47v61.6h86.4c40.6,0,73.5-32.9,73.5-73.5v0C485.3,241.7,465.5,214.8,437.8,204.3z"/>
</svg>
