<?xml version="1.0" encoding="utf-8"?>
<!-- Generator: Adobe Illustrator 23.0.0, SVG Export Plug-In . SVG Version: 6.00 Build 0)  -->
<svg version="1.1" id="Layer_1" xmlns="http://www.w3.org/2000/svg" xmlns:xlink="http://www.w3.org/1999/xlink" x="0px" y="0px"
	 viewBox="0 0 476 393" style="enable-background:new 0 0 476 393;" xml:space="preserve">
<style type="text/css">
	.st0{fill:#FFFFFF;stroke:#FFFFFF;stroke-miterlimit:10;}
</style>
<g>
	<path class="st0" d="M377.4,154.2c-19.1,15.9-69.5,27.2-128.6,27.2c-59.9,0-110.8-11.7-129.4-27.9c-5.3,4-8.2,8.3-8.2,12.7
		c0,20.5,61.2,37.1,136.8,37.1s136.8-16.6,136.8-37.1C384.8,162.1,382.2,158,377.4,154.2z"/>
	<ellipse class="st0" cx="248" cy="121.2" rx="136.8" ry="41.4"/>
	<path class="st0" d="M377.4,198.8c-19.1,15.9-69.5,27.2-128.6,27.2c-59.9,0-110.8-11.7-129.4-27.9c-5.3,4-8.2,8.3-8.2,12.7
		c0,20.5,61.2,37.1,136.8,37.1s136.8-16.6,136.8-37.1C384.8,206.7,382.2,202.6,377.4,198.8z"/>
	<path class="st0" d="M377.4,241.3c-19.1,15.9-69.5,27.2-128.6,27.2c-59.9,0-110.8-11.7-129.4-27.9c-5.3,4-8.2,8.3-8.2,12.7
		c0,20.5,61.2,37.1,136.8,37.1s136.8-16.6,136.8-37.1C384.8,249.1,382.2,245.1,377.4,241.3z"/>
</g>
</svg>
