<?xml version="1.0" encoding="utf-8"?>
<!-- Generator: Adobe Illustrator 23.0.0, SVG Export Plug-In . SVG Version: 6.00 Build 0)  -->
<svg version="1.1" id="Layer_1" xmlns="http://www.w3.org/2000/svg" xmlns:xlink="http://www.w3.org/1999/xlink" x="0px" y="0px"
	 viewBox="0 0 595.3 518.9" style="enable-background:new 0 0 595.3 518.9;" xml:space="preserve">
<style type="text/css">
	.st0{fill:#FFFFFF;}
</style>
<path class="st0" d="M473.3,234.3L299.5,78c-1.1-1-2.7-1-3.8,0L121.9,234.3c-1.9,1.7-0.7,4.9,1.9,4.9h32.5c-0.1,0.5-0.1,1-0.1,1.6
	v185.2c0,8.6,7,15.6,15.6,15.6H232c8.6,0,15.6-7,15.6-15.6v-59.6c0-16,17-29,37.9-29h24.3c20.9,0,37.9,13,37.9,29v59.6
	c0,8.6,7,15.6,15.6,15.6h60.2c8.6,0,15.6-7,15.6-15.6V240.8c0-0.5,0-1.1-0.1-1.6h32.5C474,239.2,475.2,236.1,473.3,234.3z"/>
</svg>
