<svg id="Layer_1" data-name="Layer 1" xmlns="http://www.w3.org/2000/svg" viewBox="0 0 327.93 333.37"><defs><style>.cls-1{fill:#fff;stroke:#fff;stroke-miterlimit:10;}</style></defs><title>pencil</title><polygon class="cls-1" points="0.71 332.66 80.64 311.25 22.13 252.73 0.71 332.66"/><path class="cls-1" d="M159,301.57A8.49,8.49,0,0,0,173,298.24a25.76,25.76,0,0,1,6.14-9.79L363.33,104.21a8.49,8.49,0,0,0-.08-12.1l-.39-.38a8.5,8.5,0,0,0-12,.17l-192,197.65a8.51,8.51,0,0,0,.17,12Z" transform="translate(-122.99 -49.34)"/><path class="cls-1" d="M411.17,138.67a6.75,6.75,0,0,0-9.48.06L215.53,324.89a25.5,25.5,0,0,1-11.08,6.54,6.78,6.78,0,0,0-3,11.38l5.86,5.69a6.75,6.75,0,0,0,9.55-.14L411.31,148.22a6.75,6.75,0,0,0-.14-9.55Z" transform="translate(-122.99 -49.34)"/><path class="cls-1" d="M185.37,317.83l.54.54a11.76,11.76,0,0,0,16.61,0L390.34,130.54a11.74,11.74,0,0,0,0-16.61l-.53-.53a11.75,11.75,0,0,0-16.62,0L185.37,301.22A11.74,11.74,0,0,0,185.37,317.83Z" transform="translate(-122.99 -49.34)"/><path class="cls-1" d="M444.53,81.58,417.88,55.45c-8.95-8.78-24.88-7.06-35.58,3.85L363.46,78.51l59.07,57.93,18.84-19.21C452.07,106.33,453.48,90.37,444.53,81.58Z" transform="translate(-122.99 -49.34)"/></svg>