<?xml version="1.0" encoding="utf-8"?>
<!-- Generator: Adobe Illustrator 23.0.0, SVG Export Plug-In . SVG Version: 6.00 Build 0)  -->
<svg version="1.1" id="Layer_1" xmlns="http://www.w3.org/2000/svg" xmlns:xlink="http://www.w3.org/1999/xlink" x="0px" y="0px"
	 viewBox="0 0 597 434" style="enable-background:new 0 0 597 434;" xml:space="preserve">
<style type="text/css">
	.st0{fill:#FFFFFF;stroke:#FFFFFF;stroke-miterlimit:10;}
</style>
<path class="st0" d="M337,168.4c23-15.8,38.2-42.3,38.2-72.3c0-48.3-39.2-87.5-87.5-87.5s-87.5,39.2-87.5,87.5
	c0,30,15.1,56.5,38.2,72.3c-45.6,32.1-77.6,107.1-77.6,194.7c0,7.7,0.2,15.3,0.7,22.9c1.3,19.3,13.1,34.2,27.4,34.2h197.5
	c14.3,0,26.2-14.9,27.4-34.2c0.5-7.5,0.7-15.1,0.7-22.9C414.6,275.5,382.6,200.5,337,168.4z"/>
</svg>
